<svg id="visual" viewBox="0 0 900 600" width="900" height="600" xmlns="http://www.w3.org/2000/svg" xmlns:xlink="http://www.w3.org/1999/xlink" version="1.1"><rect x="0" y="0" width="900" height="600" fill="#001220"></rect><path d="M0 148L30 157.7C60 167.3 120 186.7 180 188.5C240 190.3 300 174.7 360 166.8C420 159 480 159 540 162.5C600 166 660 173 720 180.3C780 187.7 840 195.3 870 199.2L900 203L900 601L870 601C840 601 780 601 720 601C660 601 600 601 540 601C480 601 420 601 360 601C300 601 240 601 180 601C120 601 60 601 30 601L0 601Z" fill="#3c4f6d"></path><path d="M0 235L30 245.7C60 256.3 120 277.7 180 300.3C240 323 300 347 360 336.3C420 325.7 480 280.3 540 272.3C600 264.3 660 293.7 720 314.3C780 335 840 347 870 353L900 359L900 601L870 601C840 601 780 601 720 601C660 601 600 601 540 601C480 601 420 601 360 601C300 601 240 601 180 601C120 601 60 601 30 601L0 601Z" fill="#243d68"></path><path d="M0 517L30 514.2C60 511.3 120 505.7 180 503.8C240 502 300 504 360 486C420 468 480 430 540 429.2C600 428.3 660 464.7 720 464.5C780 464.3 840 427.7 870 409.3L900 391L900 601L870 601C840 601 780 601 720 601C660 601 600 601 540 601C480 601 420 601 360 601C300 601 240 601 180 601C120 601 60 601 30 601L0 601Z" fill="#0c2a62"></path></svg>